<svg width="370" height="402" viewBox="0 0 370 402" fill="none" xmlns="http://www.w3.org/2000/svg">
<rect width="370" height="402" rx="4" fill="#EAF6FF"/>
<rect x="16" y="16" width="338" height="370" rx="4" fill="white"/>
<path d="M59.824 334V322.32H61.04V334H59.824ZM60.72 334V332.896H66.208V334H60.72ZM71.6661 334.272C70.9408 334.272 70.3115 334.149 69.7781 333.904C69.2448 333.648 68.8075 333.312 68.4661 332.896C68.1248 332.469 67.8688 331.995 67.6981 331.472C67.5381 330.949 67.4581 330.411 67.4581 329.856V329.632C67.4581 329.088 67.5381 328.555 67.6981 328.032C67.8688 327.509 68.1248 327.04 68.4661 326.624C68.8075 326.208 69.2341 325.877 69.7461 325.632C70.2688 325.376 70.8768 325.248 71.5701 325.248C72.4555 325.248 73.1915 325.445 73.7781 325.84C74.3755 326.235 74.8235 326.741 75.1221 327.36C75.4208 327.968 75.5701 328.624 75.5701 329.328V329.952H68.0021V329.024H74.7381L74.4341 329.488C74.4341 328.859 74.3221 328.309 74.0981 327.84C73.8848 327.36 73.5648 326.987 73.1381 326.72C72.7221 326.443 72.1995 326.304 71.5701 326.304C70.9088 326.304 70.3595 326.459 69.9221 326.768C69.4848 327.077 69.1541 327.488 68.9301 328C68.7168 328.512 68.6101 329.093 68.6101 329.744C68.6101 330.384 68.7168 330.971 68.9301 331.504C69.1541 332.027 69.4901 332.443 69.9381 332.752C70.3968 333.061 70.9728 333.216 71.6661 333.216C72.4021 333.216 72.9995 333.051 73.4581 332.72C73.9168 332.379 74.1995 331.979 74.3061 331.52H75.4261C75.3195 332.085 75.0955 332.576 74.7541 332.992C74.4128 333.397 73.9808 333.712 73.4581 333.936C72.9355 334.16 72.3381 334.272 71.6661 334.272ZM83.0321 334V331.456H82.8401V328.448C82.8401 327.819 82.6748 327.339 82.3441 327.008C82.0135 326.667 81.5015 326.496 80.8081 326.496C80.4881 326.496 80.1628 326.501 79.8321 326.512C79.5121 326.523 79.2028 326.539 78.9041 326.56C78.6161 326.571 78.3601 326.587 78.1361 326.608V325.552C78.3708 325.531 78.6108 325.509 78.8561 325.488C79.1015 325.467 79.3521 325.456 79.6081 325.456C79.8748 325.445 80.1308 325.44 80.3761 325.44C81.2401 325.44 81.9335 325.547 82.4561 325.76C82.9895 325.973 83.3788 326.309 83.6241 326.768C83.8695 327.216 83.9921 327.813 83.9921 328.56V334H83.0321ZM80.1681 334.224C79.5708 334.224 79.0428 334.117 78.5841 333.904C78.1255 333.691 77.7681 333.381 77.5121 332.976C77.2668 332.571 77.1441 332.08 77.1441 331.504C77.1441 330.939 77.2721 330.459 77.5281 330.064C77.7948 329.669 78.1735 329.371 78.6641 329.168C79.1655 328.955 79.7681 328.848 80.4721 328.848H82.9521V329.76H80.3921C79.7201 329.76 79.2028 329.925 78.8401 330.256C78.4881 330.576 78.3121 330.997 78.3121 331.52C78.3121 332.053 78.4988 332.48 78.8721 332.8C79.2455 333.109 79.7521 333.264 80.3921 333.264C80.7868 333.264 81.1655 333.195 81.5281 333.056C81.8908 332.907 82.1948 332.661 82.4401 332.32C82.6855 331.968 82.8188 331.488 82.8401 330.88L83.1921 331.376C83.1495 332.005 83.0001 332.533 82.7441 332.96C82.4881 333.376 82.1415 333.691 81.7041 333.904C81.2668 334.117 80.7548 334.224 80.1681 334.224ZM86.9895 334V325.536H87.9495V329.072H87.8535C87.8535 327.835 88.1255 326.923 88.6695 326.336C89.2135 325.739 90.0668 325.44 91.2295 325.44H91.5015V326.528H91.0055C90.0882 326.528 89.3895 326.768 88.9095 327.248C88.4295 327.717 88.1895 328.411 88.1895 329.328V334H86.9895ZM93.4426 334V325.536H94.4026V329.088H94.2106C94.2106 328.299 94.328 327.621 94.5626 327.056C94.7973 326.491 95.1493 326.053 95.6186 325.744C96.088 325.435 96.68 325.28 97.3946 325.28H97.4426C98.5093 325.28 99.304 325.616 99.8266 326.288C100.349 326.949 100.611 327.883 100.611 329.088V334H99.4266V328.832C99.4266 328.096 99.224 327.504 98.8186 327.056C98.4133 326.608 97.848 326.384 97.1226 326.384C96.376 326.384 95.7733 326.619 95.3146 327.088C94.8666 327.547 94.6426 328.155 94.6426 328.912V334H93.4426ZM107.605 334V322.32H109.189L112.869 330.4H113.157L116.821 322.32H118.437V334H117.221V323.68L117.317 323.696L113.765 331.536H112.165L108.597 323.696L108.725 323.68V334H107.605ZM125.61 334.272C124.884 334.272 124.244 334.149 123.69 333.904C123.146 333.648 122.682 333.312 122.298 332.896C121.924 332.469 121.636 331.995 121.434 331.472C121.242 330.949 121.146 330.416 121.146 329.872V329.648C121.146 329.104 121.247 328.571 121.45 328.048C121.652 327.515 121.946 327.04 122.33 326.624C122.714 326.208 123.178 325.877 123.722 325.632C124.276 325.376 124.906 325.248 125.61 325.248C126.324 325.248 126.954 325.376 127.498 325.632C128.052 325.877 128.522 326.208 128.906 326.624C129.29 327.04 129.578 327.515 129.77 328.048C129.972 328.571 130.074 329.104 130.074 329.648V329.872C130.074 330.416 129.978 330.949 129.786 331.472C129.594 331.995 129.306 332.469 128.922 332.896C128.548 333.312 128.084 333.648 127.53 333.904C126.975 334.149 126.335 334.272 125.61 334.272ZM125.61 333.2C126.314 333.2 126.906 333.045 127.386 332.736C127.876 332.416 128.25 332 128.506 331.488C128.762 330.965 128.89 330.389 128.89 329.76C128.89 329.12 128.756 328.544 128.49 328.032C128.234 327.509 127.86 327.099 127.37 326.8C126.879 326.491 126.292 326.336 125.61 326.336C124.938 326.336 124.356 326.491 123.866 326.8C123.375 327.099 122.996 327.509 122.73 328.032C122.474 328.544 122.346 329.12 122.346 329.76C122.346 330.389 122.474 330.965 122.73 331.488C122.986 332 123.354 332.416 123.834 332.736C124.324 333.045 124.916 333.2 125.61 333.2ZM132.521 334V325.536H133.481V329.072H133.385C133.385 327.835 133.657 326.923 134.201 326.336C134.745 325.739 135.598 325.44 136.761 325.44H137.033V326.528H136.537C135.619 326.528 134.921 326.768 134.441 327.248C133.961 327.717 133.721 328.411 133.721 329.328V334H132.521ZM142.401 334.272C141.675 334.272 141.046 334.149 140.513 333.904C139.979 333.648 139.542 333.312 139.201 332.896C138.859 332.469 138.603 331.995 138.433 331.472C138.273 330.949 138.193 330.411 138.193 329.856V329.632C138.193 329.088 138.273 328.555 138.433 328.032C138.603 327.509 138.859 327.04 139.201 326.624C139.542 326.208 139.969 325.877 140.481 325.632C141.003 325.376 141.611 325.248 142.305 325.248C143.19 325.248 143.926 325.445 144.513 325.84C145.11 326.235 145.558 326.741 145.857 327.36C146.155 327.968 146.305 328.624 146.305 329.328V329.952H138.737V329.024H145.473L145.169 329.488C145.169 328.859 145.057 328.309 144.833 327.84C144.619 327.36 144.299 326.987 143.873 326.72C143.457 326.443 142.934 326.304 142.305 326.304C141.643 326.304 141.094 326.459 140.657 326.768C140.219 327.077 139.889 327.488 139.664 328C139.451 328.512 139.345 329.093 139.345 329.744C139.345 330.384 139.451 330.971 139.664 331.504C139.889 332.027 140.225 332.443 140.673 332.752C141.131 333.061 141.707 333.216 142.401 333.216C143.137 333.216 143.734 333.051 144.193 332.72C144.651 332.379 144.934 331.979 145.041 331.52H146.161C146.054 332.085 145.83 332.576 145.489 332.992C145.147 333.397 144.715 333.712 144.193 333.936C143.67 334.16 143.073 334.272 142.401 334.272Z" fill="#575F66"/>
<path d="M63.568 232.272C62.5867 232.272 61.76 232.117 61.088 231.808C60.416 231.488 59.904 231.051 59.552 230.496C59.2107 229.931 59.04 229.296 59.04 228.592H60.256C60.256 229.04 60.3627 229.461 60.576 229.856C60.8 230.24 61.152 230.555 61.632 230.8C62.1227 231.035 62.768 231.152 63.568 231.152C64.304 231.152 64.912 231.045 65.392 230.832C65.8827 230.619 66.2453 230.331 66.48 229.968C66.7253 229.605 66.848 229.2 66.848 228.752C66.848 228.187 66.624 227.717 66.176 227.344C65.7387 226.96 65.0773 226.731 64.192 226.656L62.848 226.528C61.8453 226.443 61.0453 226.133 60.448 225.6C59.8613 225.056 59.568 224.341 59.568 223.456C59.568 222.784 59.728 222.192 60.048 221.68C60.368 221.168 60.8213 220.763 61.408 220.464C62.0053 220.165 62.72 220.016 63.552 220.016C64.3947 220.016 65.1147 220.171 65.712 220.48C66.32 220.779 66.784 221.195 67.104 221.728C67.424 222.261 67.584 222.88 67.584 223.584H66.368C66.368 223.157 66.272 222.757 66.08 222.384C65.888 222.011 65.584 221.712 65.168 221.488C64.752 221.253 64.2133 221.136 63.552 221.136C62.9227 221.136 62.4 221.243 61.984 221.456C61.5787 221.669 61.2747 221.952 61.072 222.304C60.88 222.656 60.784 223.04 60.784 223.456C60.784 223.979 60.9707 224.421 61.344 224.784C61.7173 225.147 62.256 225.355 62.96 225.408L64.304 225.536C65.0933 225.6 65.7653 225.776 66.32 226.064C66.8853 226.341 67.3173 226.709 67.616 227.168C67.9147 227.616 68.064 228.144 68.064 228.752C68.064 229.435 67.8773 230.043 67.504 230.576C67.1413 231.109 66.624 231.525 65.952 231.824C65.28 232.123 64.4853 232.272 63.568 232.272ZM74.2443 232.272C73.5189 232.272 72.8896 232.149 72.3563 231.904C71.8229 231.648 71.3856 231.312 71.0443 230.896C70.7029 230.469 70.4469 229.995 70.2763 229.472C70.1163 228.949 70.0363 228.411 70.0363 227.856V227.632C70.0363 227.088 70.1163 226.555 70.2763 226.032C70.4469 225.509 70.7029 225.04 71.0443 224.624C71.3856 224.208 71.8123 223.877 72.3243 223.632C72.8469 223.376 73.4549 223.248 74.1483 223.248C75.0336 223.248 75.7696 223.445 76.3563 223.84C76.9536 224.235 77.4016 224.741 77.7003 225.36C77.9989 225.968 78.1483 226.624 78.1483 227.328V227.952H70.5803V227.024H77.3163L77.0123 227.488C77.0123 226.859 76.9003 226.309 76.6763 225.84C76.4629 225.36 76.1429 224.987 75.7163 224.72C75.3003 224.443 74.7776 224.304 74.1483 224.304C73.4869 224.304 72.9376 224.459 72.5003 224.768C72.0629 225.077 71.7323 225.488 71.5082 226C71.2949 226.512 71.1883 227.093 71.1883 227.744C71.1883 228.384 71.2949 228.971 71.5082 229.504C71.7323 230.027 72.0683 230.443 72.5163 230.752C72.9749 231.061 73.5509 231.216 74.2443 231.216C74.9803 231.216 75.5776 231.051 76.0363 230.72C76.4949 230.379 76.7776 229.979 76.8843 229.52H78.0043C77.8976 230.085 77.6736 230.576 77.3323 230.992C76.9909 231.397 76.5589 231.712 76.0363 231.936C75.5136 232.16 74.9163 232.272 74.2443 232.272ZM85.6103 232V229.456H85.4183V226.448C85.4183 225.819 85.2529 225.339 84.9223 225.008C84.5916 224.667 84.0796 224.496 83.3863 224.496C83.0663 224.496 82.7409 224.501 82.4103 224.512C82.0903 224.523 81.7809 224.539 81.4823 224.56C81.1943 224.571 80.9383 224.587 80.7143 224.608V223.552C80.9489 223.531 81.1889 223.509 81.4343 223.488C81.6796 223.467 81.9303 223.456 82.1863 223.456C82.4529 223.445 82.7089 223.44 82.9543 223.44C83.8183 223.44 84.5116 223.547 85.0343 223.76C85.5676 223.973 85.9569 224.309 86.2023 224.768C86.4476 225.216 86.5703 225.813 86.5703 226.56V232H85.6103ZM82.7463 232.224C82.1489 232.224 81.6209 232.117 81.1623 231.904C80.7036 231.691 80.3463 231.381 80.0903 230.976C79.8449 230.571 79.7223 230.08 79.7223 229.504C79.7223 228.939 79.8503 228.459 80.1063 228.064C80.3729 227.669 80.7516 227.371 81.2423 227.168C81.7436 226.955 82.3463 226.848 83.0503 226.848H85.5303V227.76H82.9703C82.2983 227.76 81.7809 227.925 81.4183 228.256C81.0663 228.576 80.8903 228.997 80.8903 229.52C80.8903 230.053 81.0769 230.48 81.4503 230.8C81.8236 231.109 82.3303 231.264 82.9703 231.264C83.3649 231.264 83.7436 231.195 84.1063 231.056C84.4689 230.907 84.7729 230.661 85.0183 230.32C85.2636 229.968 85.3969 229.488 85.4183 228.88L85.7703 229.376C85.7276 230.005 85.5783 230.533 85.3223 230.96C85.0663 231.376 84.7196 231.691 84.2823 231.904C83.8449 232.117 83.3329 232.224 82.7463 232.224ZM89.5676 232V223.536H90.5276V227.072H90.4316C90.4316 225.835 90.7036 224.923 91.2476 224.336C91.7916 223.739 92.645 223.44 93.8076 223.44H94.0796V224.528H93.5836C92.6663 224.528 91.9676 224.768 91.4876 225.248C91.0076 225.717 90.7676 226.411 90.7676 227.328V232H89.5676ZM99.4794 232.272C98.7647 232.272 98.1407 232.149 97.6074 231.904C97.0847 231.648 96.6474 231.307 96.2954 230.88C95.9434 230.443 95.6767 229.963 95.4954 229.44C95.3247 228.917 95.2394 228.389 95.2394 227.856V227.632C95.2394 227.088 95.3247 226.56 95.4954 226.048C95.6767 225.525 95.9434 225.056 96.2954 224.64C96.6474 224.213 97.0847 223.877 97.6074 223.632C98.1407 223.376 98.754 223.248 99.4474 223.248C100.151 223.248 100.775 223.376 101.319 223.632C101.874 223.888 102.322 224.251 102.663 224.72C103.005 225.189 103.207 225.744 103.271 226.384H102.119C102.023 225.797 101.746 225.312 101.287 224.928C100.839 224.533 100.226 224.336 99.4474 224.336C98.7754 224.336 98.2154 224.491 97.7674 224.8C97.33 225.099 96.9994 225.509 96.7754 226.032C96.5514 226.544 96.4394 227.115 96.4394 227.744C96.4394 228.363 96.5514 228.939 96.7754 229.472C96.9994 229.995 97.3354 230.416 97.7834 230.736C98.2314 231.045 98.7967 231.2 99.4794 231.2C100.002 231.2 100.455 231.109 100.839 230.928C101.234 230.736 101.549 230.48 101.783 230.16C102.029 229.84 102.173 229.488 102.215 229.104H103.367C103.325 229.744 103.122 230.304 102.759 230.784C102.407 231.253 101.949 231.621 101.383 231.888C100.818 232.144 100.183 232.272 99.4794 232.272ZM105.568 232V220.32H106.768V226.928L106.416 227.2C106.416 226.411 106.528 225.723 106.752 225.136C106.986 224.549 107.333 224.096 107.792 223.776C108.261 223.445 108.848 223.28 109.552 223.28H109.616C110.64 223.28 111.413 223.616 111.936 224.288C112.469 224.96 112.736 225.893 112.736 227.088V232H111.552V226.832C111.552 226.075 111.344 225.477 110.928 225.04C110.512 224.603 109.952 224.384 109.248 224.384C108.49 224.384 107.888 224.629 107.44 225.12C106.992 225.6 106.768 226.235 106.768 227.024V232H105.568ZM124.61 232V229.456H124.418V226.448C124.418 225.819 124.253 225.339 123.922 225.008C123.592 224.667 123.08 224.496 122.386 224.496C122.066 224.496 121.741 224.501 121.41 224.512C121.09 224.523 120.781 224.539 120.482 224.56C120.194 224.571 119.938 224.587 119.714 224.608V223.552C119.949 223.531 120.189 223.509 120.434 223.488C120.68 223.467 120.93 223.456 121.186 223.456C121.453 223.445 121.709 223.44 121.954 223.44C122.818 223.44 123.512 223.547 124.034 223.76C124.568 223.973 124.957 224.309 125.202 224.768C125.448 225.216 125.57 225.813 125.57 226.56V232H124.61ZM121.746 232.224C121.149 232.224 120.621 232.117 120.162 231.904C119.704 231.691 119.346 231.381 119.09 230.976C118.845 230.571 118.722 230.08 118.722 229.504C118.722 228.939 118.85 228.459 119.106 228.064C119.373 227.669 119.752 227.371 120.242 227.168C120.744 226.955 121.346 226.848 122.05 226.848H124.53V227.76H121.97C121.298 227.76 120.781 227.925 120.418 228.256C120.066 228.576 119.89 228.997 119.89 229.52C119.89 230.053 120.077 230.48 120.45 230.8C120.824 231.109 121.33 231.264 121.97 231.264C122.365 231.264 122.744 231.195 123.106 231.056C123.469 230.907 123.773 230.661 124.018 230.32C124.264 229.968 124.397 229.488 124.418 228.88L124.77 229.376C124.728 230.005 124.578 230.533 124.322 230.96C124.066 231.376 123.72 231.691 123.282 231.904C122.845 232.117 122.333 232.224 121.746 232.224ZM135.774 232.272C135.155 232.272 134.59 232.16 134.078 231.936C133.577 231.701 133.139 231.381 132.766 230.976C132.403 230.56 132.121 230.091 131.918 229.568C131.726 229.035 131.63 228.469 131.63 227.872V227.648C131.63 227.072 131.726 226.523 131.918 226C132.11 225.467 132.382 224.997 132.734 224.592C133.097 224.176 133.529 223.851 134.03 223.616C134.542 223.371 135.113 223.248 135.742 223.248C136.457 223.248 137.086 223.403 137.63 223.712C138.174 224.021 138.611 224.469 138.942 225.056C139.273 225.632 139.449 226.341 139.47 227.184L138.942 226.192V220.32H140.142V232H139.182V228.24H139.566C139.545 229.125 139.358 229.872 139.006 230.48C138.665 231.077 138.211 231.525 137.646 231.824C137.091 232.123 136.467 232.272 135.774 232.272ZM135.934 231.216C136.51 231.216 137.027 231.088 137.486 230.832C137.955 230.576 138.323 230.213 138.59 229.744C138.857 229.264 138.99 228.715 138.99 228.096V227.328C138.99 226.731 138.857 226.208 138.59 225.76C138.323 225.301 137.955 224.944 137.486 224.688C137.027 224.432 136.505 224.304 135.918 224.304C135.289 224.304 134.739 224.459 134.27 224.768C133.811 225.067 133.454 225.477 133.198 226C132.953 226.523 132.83 227.109 132.83 227.76C132.83 228.432 132.958 229.029 133.214 229.552C133.47 230.075 133.833 230.485 134.302 230.784C134.771 231.072 135.315 231.216 135.934 231.216ZM147.032 232.272C146.306 232.272 145.666 232.149 145.112 231.904C144.568 231.648 144.104 231.312 143.72 230.896C143.346 230.469 143.058 229.995 142.856 229.472C142.664 228.949 142.568 228.416 142.568 227.872V227.648C142.568 227.104 142.669 226.571 142.872 226.048C143.074 225.515 143.368 225.04 143.752 224.624C144.136 224.208 144.6 223.877 145.144 223.632C145.698 223.376 146.328 223.248 147.032 223.248C147.746 223.248 148.376 223.376 148.92 223.632C149.474 223.877 149.944 224.208 150.328 224.624C150.712 225.04 151 225.515 151.192 226.048C151.394 226.571 151.496 227.104 151.496 227.648V227.872C151.496 228.416 151.4 228.949 151.208 229.472C151.016 229.995 150.728 230.469 150.344 230.896C149.97 231.312 149.506 231.648 148.952 231.904C148.397 232.149 147.757 232.272 147.032 232.272ZM147.032 231.2C147.736 231.2 148.328 231.045 148.808 230.736C149.298 230.416 149.672 230 149.928 229.488C150.184 228.965 150.312 228.389 150.312 227.76C150.312 227.12 150.178 226.544 149.911 226.032C149.656 225.509 149.282 225.099 148.792 224.8C148.301 224.491 147.714 224.336 147.032 224.336C146.36 224.336 145.778 224.491 145.288 224.8C144.797 225.099 144.418 225.509 144.152 226.032C143.896 226.544 143.768 227.12 143.768 227.76C143.768 228.389 143.896 228.965 144.152 229.488C144.408 230 144.776 230.416 145.256 230.736C145.746 231.045 146.338 231.2 147.032 231.2ZM157.511 232.272C156.796 232.272 156.172 232.149 155.639 231.904C155.116 231.648 154.679 231.307 154.327 230.88C153.975 230.443 153.708 229.963 153.527 229.44C153.356 228.917 153.271 228.389 153.271 227.856V227.632C153.271 227.088 153.356 226.56 153.527 226.048C153.708 225.525 153.975 225.056 154.327 224.64C154.679 224.213 155.116 223.877 155.639 223.632C156.172 223.376 156.785 223.248 157.479 223.248C158.183 223.248 158.807 223.376 159.351 223.632C159.905 223.888 160.353 224.251 160.695 224.72C161.036 225.189 161.239 225.744 161.303 226.384H160.151C160.055 225.797 159.777 225.312 159.319 224.928C158.871 224.533 158.257 224.336 157.479 224.336C156.807 224.336 156.247 224.491 155.799 224.8C155.361 225.099 155.031 225.509 154.807 226.032C154.583 226.544 154.471 227.115 154.471 227.744C154.471 228.363 154.583 228.939 154.807 229.472C155.031 229.995 155.367 230.416 155.815 230.736C156.263 231.045 156.828 231.2 157.511 231.2C158.033 231.2 158.487 231.109 158.871 230.928C159.265 230.736 159.58 230.48 159.815 230.16C160.06 229.84 160.204 229.488 160.247 229.104H161.399C161.356 229.744 161.153 230.304 160.791 230.784C160.439 231.253 159.98 231.621 159.415 231.888C158.849 232.144 158.215 232.272 157.511 232.272ZM166.671 232.096C166.084 232.096 165.578 232.011 165.151 231.84C164.724 231.669 164.394 231.381 164.159 230.976C163.924 230.56 163.807 230.005 163.807 229.312V220.864H164.959V229.488C164.959 229.979 165.092 230.357 165.359 230.624C165.626 230.88 166.004 231.008 166.495 231.008H168.015V232.096H166.671ZM162.287 224.448V223.536H168.015V224.448H162.287ZM174.047 232.272C173.322 232.272 172.682 232.149 172.127 231.904C171.583 231.648 171.119 231.312 170.735 230.896C170.362 230.469 170.074 229.995 169.871 229.472C169.679 228.949 169.583 228.416 169.583 227.872V227.648C169.583 227.104 169.684 226.571 169.887 226.048C170.09 225.515 170.383 225.04 170.767 224.624C171.151 224.208 171.615 223.877 172.159 223.632C172.714 223.376 173.343 223.248 174.047 223.248C174.762 223.248 175.391 223.376 175.935 223.632C176.49 223.877 176.959 224.208 177.343 224.624C177.727 225.04 178.015 225.515 178.207 226.048C178.41 226.571 178.511 227.104 178.511 227.648V227.872C178.511 228.416 178.415 228.949 178.223 229.472C178.031 229.995 177.743 230.469 177.359 230.896C176.986 231.312 176.522 231.648 175.967 231.904C175.412 232.149 174.772 232.272 174.047 232.272ZM174.047 231.2C174.751 231.2 175.343 231.045 175.823 230.736C176.314 230.416 176.687 230 176.943 229.488C177.199 228.965 177.327 228.389 177.327 227.76C177.327 227.12 177.194 226.544 176.927 226.032C176.671 225.509 176.298 225.099 175.807 224.8C175.316 224.491 174.73 224.336 174.047 224.336C173.375 224.336 172.794 224.491 172.303 224.8C171.812 225.099 171.434 225.509 171.167 226.032C170.911 226.544 170.783 227.12 170.783 227.76C170.783 228.389 170.911 228.965 171.167 229.488C171.423 230 171.791 230.416 172.271 230.736C172.762 231.045 173.354 231.2 174.047 231.2ZM180.958 232V223.536H181.918V227.072H181.822C181.822 225.835 182.094 224.923 182.638 224.336C183.182 223.739 184.036 223.44 185.198 223.44H185.47V224.528H184.974C184.057 224.528 183.358 224.768 182.878 225.248C182.398 225.717 182.158 226.411 182.158 227.328V232H180.958ZM195.514 232.272C194.767 232.272 194.111 232.107 193.546 231.776C192.991 231.445 192.554 230.981 192.234 230.384C191.924 229.787 191.759 229.099 191.738 228.32H192.106V232H191.146V220.32H192.346V226.16L191.882 227.232C191.903 226.379 192.074 225.659 192.394 225.072C192.724 224.475 193.162 224.021 193.706 223.712C194.26 223.403 194.89 223.248 195.594 223.248C196.212 223.248 196.772 223.365 197.274 223.6C197.775 223.835 198.202 224.155 198.554 224.56C198.916 224.965 199.188 225.435 199.37 225.968C199.562 226.491 199.658 227.045 199.658 227.632V227.856C199.658 228.432 199.562 228.987 199.37 229.52C199.178 230.043 198.9 230.512 198.538 230.928C198.186 231.344 197.754 231.675 197.242 231.92C196.73 232.155 196.154 232.272 195.514 232.272ZM195.386 231.216C196.026 231.216 196.575 231.061 197.034 230.752C197.492 230.443 197.844 230.027 198.09 229.504C198.335 228.981 198.458 228.395 198.458 227.744C198.458 227.083 198.33 226.496 198.074 225.984C197.828 225.461 197.471 225.051 197.002 224.752C196.543 224.453 196.004 224.304 195.386 224.304C194.81 224.304 194.287 224.432 193.818 224.688C193.348 224.944 192.975 225.307 192.698 225.776C192.431 226.235 192.298 226.779 192.298 227.408V228.192C192.298 228.789 192.431 229.317 192.698 229.776C192.975 230.224 193.348 230.576 193.818 230.832C194.287 231.088 194.81 231.216 195.386 231.216ZM201.191 235.296V234.224H202.279C202.652 234.224 202.972 234.176 203.239 234.08C203.505 233.995 203.729 233.84 203.911 233.616C204.092 233.392 204.247 233.083 204.375 232.688L207.223 223.536H208.391L205.415 233.024C205.244 233.568 205.009 234.005 204.711 234.336C204.412 234.677 204.055 234.923 203.639 235.072C203.223 235.221 202.748 235.296 202.215 235.296H201.191ZM203.943 231.792V230.784H205.463V231.792H203.943ZM203.799 231.792L200.727 223.536H201.959L204.919 231.792H203.799ZM217.76 232.272C217.035 232.272 216.405 232.149 215.872 231.904C215.339 231.648 214.901 231.312 214.56 230.896C214.219 230.469 213.963 229.995 213.792 229.472C213.632 228.949 213.552 228.411 213.552 227.856V227.632C213.552 227.088 213.632 226.555 213.792 226.032C213.963 225.509 214.219 225.04 214.56 224.624C214.901 224.208 215.328 223.877 215.84 223.632C216.363 223.376 216.971 223.248 217.664 223.248C218.549 223.248 219.285 223.445 219.872 223.84C220.469 224.235 220.917 224.741 221.216 225.36C221.515 225.968 221.664 226.624 221.664 227.328V227.952H214.096V227.024H220.832L220.528 227.488C220.528 226.859 220.416 226.309 220.192 225.84C219.979 225.36 219.659 224.987 219.232 224.72C218.816 224.443 218.293 224.304 217.664 224.304C217.003 224.304 216.453 224.459 216.016 224.768C215.579 225.077 215.248 225.488 215.024 226C214.811 226.512 214.704 227.093 214.704 227.744C214.704 228.384 214.811 228.971 215.024 229.504C215.248 230.027 215.584 230.443 216.032 230.752C216.491 231.061 217.067 231.216 217.76 231.216C218.496 231.216 219.093 231.051 219.552 230.72C220.011 230.379 220.293 229.979 220.4 229.52H221.52C221.413 230.085 221.189 230.576 220.848 230.992C220.507 231.397 220.075 231.712 219.552 231.936C219.029 232.16 218.432 232.272 217.76 232.272ZM227.446 232.272C226.827 232.272 226.262 232.16 225.75 231.936C225.249 231.701 224.811 231.381 224.438 230.976C224.075 230.56 223.793 230.091 223.59 229.568C223.398 229.035 223.302 228.469 223.302 227.872V227.648C223.302 227.072 223.398 226.523 223.59 226C223.782 225.467 224.054 224.997 224.406 224.592C224.769 224.176 225.201 223.851 225.702 223.616C226.214 223.371 226.785 223.248 227.414 223.248C228.129 223.248 228.758 223.403 229.302 223.712C229.846 224.021 230.283 224.469 230.614 225.056C230.945 225.632 231.121 226.341 231.142 227.184L230.614 226.192V220.32H231.814V232H230.854V228.24H231.238C231.217 229.125 231.03 229.872 230.678 230.48C230.337 231.077 229.883 231.525 229.318 231.824C228.763 232.123 228.139 232.272 227.446 232.272ZM227.606 231.216C228.182 231.216 228.699 231.088 229.158 230.832C229.627 230.576 229.995 230.213 230.262 229.744C230.529 229.264 230.662 228.715 230.662 228.096V227.328C230.662 226.731 230.529 226.208 230.262 225.76C229.995 225.301 229.627 224.944 229.158 224.688C228.699 224.432 228.177 224.304 227.59 224.304C226.961 224.304 226.411 224.459 225.942 224.768C225.483 225.067 225.126 225.477 224.87 226C224.625 226.523 224.502 227.109 224.502 227.76C224.502 228.432 224.63 229.029 224.886 229.552C225.142 230.075 225.505 230.485 225.974 230.784C226.443 231.072 226.987 231.216 227.606 231.216ZM237.839 232.24C236.826 232.24 236.053 231.915 235.519 231.264C234.986 230.603 234.719 229.685 234.719 228.512V223.52H235.903V228.752C235.903 229.488 236.095 230.075 236.479 230.512C236.874 230.939 237.418 231.152 238.111 231.152C238.837 231.152 239.413 230.923 239.839 230.464C240.277 230.005 240.495 229.392 240.495 228.624V223.52H241.695V232H240.735V228.464H240.927C240.927 229.253 240.815 229.931 240.591 230.496C240.367 231.051 240.031 231.483 239.583 231.792C239.135 232.091 238.57 232.24 237.887 232.24H237.839ZM248.401 232.272C247.687 232.272 247.063 232.149 246.529 231.904C246.007 231.648 245.569 231.307 245.217 230.88C244.865 230.443 244.599 229.963 244.417 229.44C244.247 228.917 244.161 228.389 244.161 227.856V227.632C244.161 227.088 244.247 226.56 244.417 226.048C244.599 225.525 244.865 225.056 245.217 224.64C245.569 224.213 246.007 223.877 246.529 223.632C247.063 223.376 247.676 223.248 248.369 223.248C249.073 223.248 249.697 223.376 250.241 223.632C250.796 223.888 251.244 224.251 251.585 224.72C251.927 225.189 252.129 225.744 252.193 226.384H251.041C250.945 225.797 250.668 225.312 250.209 224.928C249.761 224.533 249.148 224.336 248.369 224.336C247.697 224.336 247.137 224.491 246.689 224.8C246.252 225.099 245.921 225.509 245.697 226.032C245.473 226.544 245.361 227.115 245.361 227.744C245.361 228.363 245.473 228.939 245.697 229.472C245.921 229.995 246.257 230.416 246.705 230.736C247.153 231.045 247.719 231.2 248.401 231.2C248.924 231.2 249.377 231.109 249.761 230.928C250.156 230.736 250.471 230.48 250.705 230.16C250.951 229.84 251.095 229.488 251.137 229.104H252.289C252.247 229.744 252.044 230.304 251.681 230.784C251.329 231.253 250.871 231.621 250.305 231.888C249.74 232.144 249.105 232.272 248.401 232.272ZM259.642 232V229.456H259.45V226.448C259.45 225.819 259.284 225.339 258.954 225.008C258.623 224.667 258.111 224.496 257.418 224.496C257.098 224.496 256.772 224.501 256.442 224.512C256.122 224.523 255.812 224.539 255.514 224.56C255.226 224.571 254.97 224.587 254.746 224.608V223.552C254.98 223.531 255.22 223.509 255.466 223.488C255.711 223.467 255.962 223.456 256.218 223.456C256.484 223.445 256.74 223.44 256.986 223.44C257.85 223.44 258.543 223.547 259.066 223.76C259.599 223.973 259.988 224.309 260.234 224.768C260.479 225.216 260.602 225.813 260.602 226.56V232H259.642ZM256.778 232.224C256.18 232.224 255.652 232.117 255.194 231.904C254.735 231.691 254.378 231.381 254.122 230.976C253.876 230.571 253.754 230.08 253.754 229.504C253.754 228.939 253.882 228.459 254.138 228.064C254.404 227.669 254.783 227.371 255.274 227.168C255.775 226.955 256.378 226.848 257.082 226.848H259.562V227.76H257.002C256.33 227.76 255.812 227.925 255.45 228.256C255.098 228.576 254.922 228.997 254.922 229.52C254.922 230.053 255.108 230.48 255.482 230.8C255.855 231.109 256.362 231.264 257.002 231.264C257.396 231.264 257.775 231.195 258.138 231.056C258.5 230.907 258.804 230.661 259.05 230.32C259.295 229.968 259.428 229.488 259.45 228.88L259.802 229.376C259.759 230.005 259.61 230.533 259.354 230.96C259.098 231.376 258.751 231.691 258.314 231.904C257.876 232.117 257.364 232.224 256.778 232.224ZM266.671 232.096C266.084 232.096 265.578 232.011 265.151 231.84C264.724 231.669 264.394 231.381 264.159 230.976C263.924 230.56 263.807 230.005 263.807 229.312V220.864H264.959V229.488C264.959 229.979 265.092 230.357 265.359 230.624C265.626 230.88 266.004 231.008 266.495 231.008H268.015V232.096H266.671ZM262.287 224.448V223.536H268.015V224.448H262.287ZM270.781 232V223.536H271.965V232H270.781ZM269.421 224.496V223.536H271.965V224.496H269.421ZM271.037 221.968C270.749 221.968 270.531 221.893 270.381 221.744C270.243 221.584 270.173 221.387 270.173 221.152C270.173 220.917 270.243 220.725 270.381 220.576C270.531 220.416 270.749 220.336 271.037 220.336C271.325 220.336 271.539 220.416 271.677 220.576C271.816 220.725 271.885 220.917 271.885 221.152C271.885 221.387 271.816 221.584 271.677 221.744C271.539 221.893 271.325 221.968 271.037 221.968ZM278.907 232.272C278.181 232.272 277.541 232.149 276.987 231.904C276.443 231.648 275.979 231.312 275.595 230.896C275.221 230.469 274.933 229.995 274.731 229.472C274.539 228.949 274.443 228.416 274.443 227.872V227.648C274.443 227.104 274.544 226.571 274.747 226.048C274.949 225.515 275.243 225.04 275.627 224.624C276.011 224.208 276.475 223.877 277.019 223.632C277.573 223.376 278.203 223.248 278.907 223.248C279.621 223.248 280.251 223.376 280.795 223.632C281.349 223.877 281.819 224.208 282.203 224.624C282.587 225.04 282.875 225.515 283.067 226.048C283.269 226.571 283.371 227.104 283.371 227.648V227.872C283.371 228.416 283.275 228.949 283.083 229.472C282.891 229.995 282.603 230.469 282.219 230.896C281.845 231.312 281.381 231.648 280.827 231.904C280.272 232.149 279.632 232.272 278.907 232.272ZM278.907 231.2C279.611 231.2 280.203 231.045 280.683 230.736C281.173 230.416 281.547 230 281.803 229.488C282.059 228.965 282.187 228.389 282.187 227.76C282.187 227.12 282.053 226.544 281.786 226.032C281.531 225.509 281.157 225.099 280.667 224.8C280.176 224.491 279.589 224.336 278.907 224.336C278.235 224.336 277.653 224.491 277.163 224.8C276.672 225.099 276.293 225.509 276.027 226.032C275.771 226.544 275.643 227.12 275.643 227.76C275.643 228.389 275.771 228.965 276.027 229.488C276.283 230 276.651 230.416 277.131 230.736C277.621 231.045 278.213 231.2 278.907 231.2ZM285.818 232V223.536H286.778V227.088H286.586C286.586 226.299 286.703 225.621 286.938 225.056C287.172 224.491 287.524 224.053 287.994 223.744C288.463 223.435 289.055 223.28 289.77 223.28H289.818C290.884 223.28 291.679 223.616 292.202 224.288C292.724 224.949 292.986 225.883 292.986 227.088V232H291.802V226.832C291.802 226.096 291.599 225.504 291.194 225.056C290.788 224.608 290.223 224.384 289.498 224.384C288.751 224.384 288.148 224.619 287.69 225.088C287.242 225.547 287.018 226.155 287.018 226.912V232H285.818ZM295.958 234.448L294.982 234.096L296.374 230.24L297.382 230.608L295.958 234.448ZM66.192 263.2V257.456L66.704 256.256C66.6827 257.12 66.5067 257.851 66.176 258.448C65.8453 259.045 65.4027 259.499 64.848 259.808C64.304 260.117 63.6853 260.272 62.992 260.272C62.3733 260.272 61.808 260.155 61.296 259.92C60.7947 259.685 60.3627 259.36 60 258.944C59.648 258.528 59.3707 258.053 59.168 257.52C58.976 256.987 58.88 256.427 58.88 255.84V255.616C58.88 255.029 58.976 254.48 59.168 253.968C59.36 253.445 59.6373 252.981 60 252.576C60.3627 252.16 60.7947 251.835 61.296 251.6C61.808 251.365 62.384 251.248 63.024 251.248C63.7813 251.248 64.4373 251.419 64.992 251.76C65.5573 252.091 65.9947 252.549 66.304 253.136C66.624 253.723 66.7947 254.411 66.816 255.2L66.432 255.104V251.536H67.392V263.2H66.192ZM63.184 259.184C63.76 259.184 64.2773 259.056 64.736 258.8C65.2053 258.533 65.5733 258.165 65.84 257.696C66.1067 257.227 66.24 256.683 66.24 256.064V255.28C66.24 254.683 66.1067 254.16 65.84 253.712C65.5733 253.253 65.2053 252.901 64.736 252.656C64.2773 252.4 63.76 252.272 63.184 252.272C62.544 252.272 61.9893 252.427 61.52 252.736C61.0613 253.035 60.704 253.445 60.448 253.968C60.2027 254.491 60.08 255.077 60.08 255.728C60.08 256.389 60.208 256.981 60.464 257.504C60.72 258.027 61.0827 258.437 61.552 258.736C62.0213 259.035 62.5653 259.184 63.184 259.184ZM73.4175 260.24C72.4042 260.24 71.6308 259.915 71.0975 259.264C70.5642 258.603 70.2975 257.685 70.2975 256.512V251.52H71.4815V256.752C71.4815 257.488 71.6735 258.075 72.0575 258.512C72.4522 258.939 72.9962 259.152 73.6895 259.152C74.4148 259.152 74.9908 258.923 75.4175 258.464C75.8548 258.005 76.0735 257.392 76.0735 256.624V251.52H77.2735V260H76.3135V256.464H76.5055C76.5055 257.253 76.3935 257.931 76.1695 258.496C75.9455 259.051 75.6095 259.483 75.1615 259.792C74.7135 260.091 74.1482 260.24 73.4655 260.24H73.4175ZM85.5634 260V257.456H85.3714V254.448C85.3714 253.819 85.206 253.339 84.8754 253.008C84.5447 252.667 84.0327 252.496 83.3394 252.496C83.0194 252.496 82.694 252.501 82.3634 252.512C82.0434 252.523 81.734 252.539 81.4354 252.56C81.1474 252.571 80.8914 252.587 80.6674 252.608V251.552C80.902 251.531 81.142 251.509 81.3874 251.488C81.6327 251.467 81.8834 251.456 82.1394 251.456C82.406 251.445 82.662 251.44 82.9074 251.44C83.7714 251.44 84.4647 251.547 84.9874 251.76C85.5207 251.973 85.91 252.309 86.1554 252.768C86.4007 253.216 86.5234 253.813 86.5234 254.56V260H85.5634ZM82.6994 260.224C82.102 260.224 81.574 260.117 81.1154 259.904C80.6567 259.691 80.2994 259.381 80.0434 258.976C79.798 258.571 79.6754 258.08 79.6754 257.504C79.6754 256.939 79.8034 256.459 80.0594 256.064C80.326 255.669 80.7047 255.371 81.1954 255.168C81.6967 254.955 82.2994 254.848 83.0034 254.848H85.4834V255.76H82.9234C82.2514 255.76 81.734 255.925 81.3714 256.256C81.0194 256.576 80.8434 256.997 80.8434 257.52C80.8434 258.053 81.03 258.48 81.4034 258.8C81.7767 259.109 82.2834 259.264 82.9234 259.264C83.318 259.264 83.6967 259.195 84.0594 259.056C84.422 258.907 84.726 258.661 84.9714 258.32C85.2167 257.968 85.35 257.488 85.3714 256.88L85.7234 257.376C85.6807 258.005 85.5314 258.533 85.2754 258.96C85.0194 259.376 84.6727 259.691 84.2354 259.904C83.798 260.117 83.286 260.224 82.6994 260.224ZM89.6008 260V248.32H90.8008V260H89.6008ZM88.3688 249.296V248.32H90.8008V249.296H88.3688ZM94.3594 260V251.536H95.5434V260H94.3594ZM92.9994 252.496V251.536H95.5434V252.496H92.9994ZM94.6154 249.968C94.3274 249.968 94.1087 249.893 93.9594 249.744C93.8207 249.584 93.7514 249.387 93.7514 249.152C93.7514 248.917 93.8207 248.725 93.9594 248.576C94.1087 248.416 94.3274 248.336 94.6154 248.336C94.9034 248.336 95.1167 248.416 95.2554 248.576C95.394 248.725 95.4634 248.917 95.4634 249.152C95.4634 249.387 95.394 249.584 95.2554 249.744C95.1167 249.893 94.9034 249.968 94.6154 249.968ZM98.9326 260V250.784C98.9326 249.899 99.162 249.243 99.6206 248.816C100.079 248.389 100.767 248.176 101.685 248.176H102.661V249.2H101.461C101.013 249.2 100.671 249.317 100.437 249.552C100.202 249.787 100.085 250.117 100.085 250.544V260H98.9326ZM97.7006 252.464V251.536H102.613V252.464H97.7006ZM104.821 260V251.536H106.021V260H104.821ZM103.509 252.496V251.536H106.021V252.496H103.509ZM105.077 249.968C104.789 249.968 104.575 249.893 104.437 249.744C104.298 249.584 104.229 249.387 104.229 249.152C104.229 248.917 104.298 248.725 104.437 248.576C104.575 248.416 104.789 248.336 105.077 248.336C105.365 248.336 105.578 248.416 105.717 248.576C105.855 248.725 105.925 248.917 105.925 249.152C105.925 249.387 105.855 249.584 105.717 249.744C105.578 249.893 105.365 249.968 105.077 249.968ZM112.729 260.272C112.015 260.272 111.391 260.149 110.857 259.904C110.335 259.648 109.897 259.307 109.545 258.88C109.193 258.443 108.927 257.963 108.745 257.44C108.575 256.917 108.489 256.389 108.489 255.856V255.632C108.489 255.088 108.575 254.56 108.745 254.048C108.927 253.525 109.193 253.056 109.545 252.64C109.897 252.213 110.335 251.877 110.857 251.632C111.391 251.376 112.004 251.248 112.697 251.248C113.401 251.248 114.025 251.376 114.569 251.632C115.124 251.888 115.572 252.251 115.913 252.72C116.255 253.189 116.457 253.744 116.521 254.384H115.369C115.273 253.797 114.996 253.312 114.537 252.928C114.089 252.533 113.476 252.336 112.697 252.336C112.025 252.336 111.465 252.491 111.017 252.8C110.58 253.099 110.249 253.509 110.025 254.032C109.801 254.544 109.689 255.115 109.689 255.744C109.689 256.363 109.801 256.939 110.025 257.472C110.249 257.995 110.585 258.416 111.033 258.736C111.481 259.045 112.047 259.2 112.729 259.2C113.252 259.2 113.705 259.109 114.089 258.928C114.484 258.736 114.799 258.48 115.033 258.16C115.279 257.84 115.423 257.488 115.465 257.104H116.617C116.575 257.744 116.372 258.304 116.009 258.784C115.657 259.253 115.199 259.621 114.633 259.888C114.068 260.144 113.433 260.272 112.729 260.272ZM123.97 260V257.456H123.778V254.448C123.778 253.819 123.612 253.339 123.282 253.008C122.951 252.667 122.439 252.496 121.746 252.496C121.426 252.496 121.1 252.501 120.77 252.512C120.45 252.523 120.14 252.539 119.842 252.56C119.554 252.571 119.298 252.587 119.074 252.608V251.552C119.308 251.531 119.548 251.509 119.794 251.488C120.039 251.467 120.29 251.456 120.546 251.456C120.812 251.445 121.068 251.44 121.314 251.44C122.178 251.44 122.871 251.547 123.394 251.76C123.927 251.973 124.316 252.309 124.562 252.768C124.807 253.216 124.93 253.813 124.93 254.56V260H123.97ZM121.106 260.224C120.508 260.224 119.98 260.117 119.522 259.904C119.063 259.691 118.706 259.381 118.45 258.976C118.204 258.571 118.082 258.08 118.082 257.504C118.082 256.939 118.21 256.459 118.466 256.064C118.732 255.669 119.111 255.371 119.602 255.168C120.103 254.955 120.706 254.848 121.41 254.848H123.89V255.76H121.33C120.658 255.76 120.14 255.925 119.778 256.256C119.426 256.576 119.25 256.997 119.25 257.52C119.25 258.053 119.436 258.48 119.81 258.8C120.183 259.109 120.69 259.264 121.33 259.264C121.724 259.264 122.103 259.195 122.466 259.056C122.828 258.907 123.132 258.661 123.378 258.32C123.623 257.968 123.756 257.488 123.778 256.88L124.13 257.376C124.087 258.005 123.938 258.533 123.682 258.96C123.426 259.376 123.079 259.691 122.642 259.904C122.204 260.117 121.692 260.224 121.106 260.224ZM130.999 260.096C130.412 260.096 129.906 260.011 129.479 259.84C129.052 259.669 128.722 259.381 128.487 258.976C128.252 258.56 128.135 258.005 128.135 257.312V248.864H129.287V257.488C129.287 257.979 129.42 258.357 129.687 258.624C129.954 258.88 130.332 259.008 130.823 259.008H132.343V260.096H130.999ZM126.615 252.448V251.536H132.343V252.448H126.615ZM135.109 260V251.536H136.293V260H135.109ZM133.749 252.496V251.536H136.293V252.496H133.749ZM135.365 249.968C135.077 249.968 134.859 249.893 134.709 249.744C134.571 249.584 134.501 249.387 134.501 249.152C134.501 248.917 134.571 248.725 134.709 248.576C134.859 248.416 135.077 248.336 135.365 248.336C135.653 248.336 135.867 248.416 136.005 248.576C136.144 248.725 136.213 248.917 136.213 249.152C136.213 249.387 136.144 249.584 136.005 249.744C135.867 249.893 135.653 249.968 135.365 249.968ZM143.235 260.272C142.509 260.272 141.869 260.149 141.315 259.904C140.771 259.648 140.307 259.312 139.923 258.896C139.549 258.469 139.261 257.995 139.059 257.472C138.867 256.949 138.771 256.416 138.771 255.872V255.648C138.771 255.104 138.872 254.571 139.075 254.048C139.277 253.515 139.571 253.04 139.955 252.624C140.339 252.208 140.803 251.877 141.347 251.632C141.901 251.376 142.531 251.248 143.235 251.248C143.949 251.248 144.579 251.376 145.123 251.632C145.677 251.877 146.147 252.208 146.531 252.624C146.915 253.04 147.203 253.515 147.395 254.048C147.597 254.571 147.699 255.104 147.699 255.648V255.872C147.699 256.416 147.603 256.949 147.411 257.472C147.219 257.995 146.931 258.469 146.547 258.896C146.173 259.312 145.709 259.648 145.155 259.904C144.6 260.149 143.96 260.272 143.235 260.272ZM143.235 259.2C143.939 259.2 144.531 259.045 145.011 258.736C145.501 258.416 145.875 258 146.131 257.488C146.387 256.965 146.515 256.389 146.515 255.76C146.515 255.12 146.381 254.544 146.115 254.032C145.859 253.509 145.485 253.099 144.995 252.8C144.504 252.491 143.917 252.336 143.235 252.336C142.563 252.336 141.981 252.491 141.491 252.8C141 253.099 140.621 253.509 140.355 254.032C140.099 254.544 139.971 255.12 139.971 255.76C139.971 256.389 140.099 256.965 140.355 257.488C140.611 258 140.979 258.416 141.459 258.736C141.949 259.045 142.541 259.2 143.235 259.2ZM150.146 260V251.536H151.106V255.088H150.914C150.914 254.299 151.031 253.621 151.266 253.056C151.5 252.491 151.852 252.053 152.322 251.744C152.791 251.435 153.383 251.28 154.098 251.28H154.146C155.212 251.28 156.007 251.616 156.53 252.288C157.052 252.949 157.314 253.883 157.314 255.088V260H156.13V254.832C156.13 254.096 155.927 253.504 155.522 253.056C155.116 252.608 154.551 252.384 153.826 252.384C153.079 252.384 152.476 252.619 152.018 253.088C151.57 253.547 151.346 254.155 151.346 254.912V260H150.146ZM162.974 260.24C161.886 260.24 161.049 260.005 160.462 259.536C159.875 259.056 159.577 258.416 159.566 257.616H160.686C160.707 258.021 160.889 258.389 161.23 258.72C161.582 259.051 162.163 259.216 162.974 259.216C163.731 259.216 164.297 259.061 164.67 258.752C165.054 258.432 165.246 258.048 165.246 257.6C165.246 257.184 165.086 256.864 164.766 256.64C164.457 256.405 164.003 256.256 163.406 256.192L162.446 256.096C161.678 256.011 161.054 255.776 160.574 255.392C160.105 254.997 159.87 254.459 159.87 253.776C159.87 253.275 159.998 252.837 160.254 252.464C160.51 252.091 160.867 251.803 161.326 251.6C161.795 251.387 162.345 251.28 162.974 251.28C163.881 251.28 164.617 251.493 165.182 251.92C165.758 252.347 166.051 252.955 166.062 253.744H164.942C164.931 253.339 164.761 252.997 164.43 252.72C164.099 252.443 163.614 252.304 162.974 252.304C162.313 252.304 161.817 252.448 161.486 252.736C161.166 253.024 161.006 253.376 161.006 253.792C161.006 254.144 161.129 254.437 161.374 254.672C161.619 254.896 162.003 255.035 162.526 255.088L163.486 255.184C164.339 255.28 165.033 255.525 165.566 255.92C166.11 256.315 166.382 256.88 166.382 257.616C166.382 258.117 166.238 258.571 165.95 258.976C165.673 259.371 165.278 259.68 164.766 259.904C164.254 260.128 163.657 260.24 162.974 260.24ZM176.297 260.272C175.572 260.272 174.932 260.149 174.377 259.904C173.833 259.648 173.369 259.312 172.985 258.896C172.612 258.469 172.324 257.995 172.121 257.472C171.929 256.949 171.833 256.416 171.833 255.872V255.648C171.833 255.104 171.934 254.571 172.137 254.048C172.34 253.515 172.633 253.04 173.017 252.624C173.401 252.208 173.865 251.877 174.409 251.632C174.964 251.376 175.593 251.248 176.297 251.248C177.012 251.248 177.641 251.376 178.185 251.632C178.74 251.877 179.209 252.208 179.593 252.624C179.977 253.04 180.265 253.515 180.457 254.048C180.66 254.571 180.761 255.104 180.761 255.648V255.872C180.761 256.416 180.665 256.949 180.473 257.472C180.281 257.995 179.993 258.469 179.609 258.896C179.236 259.312 178.772 259.648 178.217 259.904C177.662 260.149 177.022 260.272 176.297 260.272ZM176.297 259.2C177.001 259.2 177.593 259.045 178.073 258.736C178.564 258.416 178.937 258 179.193 257.488C179.449 256.965 179.577 256.389 179.577 255.76C179.577 255.12 179.444 254.544 179.177 254.032C178.921 253.509 178.548 253.099 178.057 252.8C177.566 252.491 176.98 252.336 176.297 252.336C175.625 252.336 175.044 252.491 174.553 252.8C174.062 253.099 173.684 253.509 173.417 254.032C173.161 254.544 173.033 255.12 173.033 255.76C173.033 256.389 173.161 256.965 173.417 257.488C173.673 258 174.041 258.416 174.521 258.736C175.012 259.045 175.604 259.2 176.297 259.2ZM183.208 260V251.536H184.168V255.072H184.072C184.072 253.835 184.344 252.923 184.888 252.336C185.432 251.739 186.286 251.44 187.448 251.44H187.72V252.528H187.224C186.307 252.528 185.608 252.768 185.128 253.248C184.648 253.717 184.408 254.411 184.408 255.328V260H183.208ZM196.932 260.272C196.206 260.272 195.577 260.149 195.044 259.904C194.51 259.648 194.073 259.312 193.732 258.896C193.39 258.469 193.134 257.995 192.964 257.472C192.804 256.949 192.724 256.411 192.724 255.856V255.632C192.724 255.088 192.804 254.555 192.964 254.032C193.134 253.509 193.39 253.04 193.732 252.624C194.073 252.208 194.5 251.877 195.012 251.632C195.534 251.376 196.142 251.248 196.836 251.248C197.721 251.248 198.457 251.445 199.044 251.84C199.641 252.235 200.089 252.741 200.388 253.36C200.686 253.968 200.836 254.624 200.836 255.328V255.952H193.268V255.024H200.004L199.7 255.488C199.7 254.859 199.588 254.309 199.364 253.84C199.15 253.36 198.83 252.987 198.404 252.72C197.988 252.443 197.465 252.304 196.836 252.304C196.174 252.304 195.625 252.459 195.188 252.768C194.75 253.077 194.42 253.488 194.196 254C193.982 254.512 193.876 255.093 193.876 255.744C193.876 256.384 193.982 256.971 194.196 257.504C194.42 258.027 194.756 258.443 195.204 258.752C195.662 259.061 196.238 259.216 196.932 259.216C197.668 259.216 198.265 259.051 198.724 258.72C199.182 258.379 199.465 257.979 199.572 257.52H200.692C200.585 258.085 200.361 258.576 200.02 258.992C199.678 259.397 199.246 259.712 198.724 259.936C198.201 260.16 197.604 260.272 196.932 260.272ZM202.09 260L205.226 255.536V255.856L202.282 251.536H203.594L205.834 254.864H206.058L208.186 251.536H209.418L206.65 255.728V255.424L209.946 260H208.634L206.042 256.4H205.834L203.322 260H202.09ZM211.88 263.2V251.536H212.84V255.168L212.552 255.2C212.595 254.347 212.776 253.627 213.096 253.04C213.427 252.453 213.869 252.011 214.424 251.712C214.989 251.403 215.619 251.248 216.312 251.248C216.931 251.248 217.491 251.371 217.992 251.616C218.504 251.851 218.936 252.176 219.288 252.592C219.651 252.997 219.923 253.467 220.104 254C220.296 254.523 220.392 255.072 220.392 255.648V255.872C220.392 256.448 220.296 257.003 220.104 257.536C219.912 258.059 219.635 258.528 219.272 258.944C218.92 259.349 218.488 259.675 217.976 259.92C217.475 260.155 216.909 260.272 216.28 260.272C215.608 260.272 214.989 260.123 214.424 259.824C213.869 259.515 213.416 259.061 213.064 258.464C212.723 257.867 212.536 257.131 212.504 256.256L213.08 257.456V263.2H211.88ZM216.12 259.216C216.76 259.216 217.309 259.067 217.768 258.768C218.227 258.459 218.579 258.043 218.824 257.52C219.069 256.987 219.192 256.4 219.192 255.76C219.192 255.099 219.064 254.512 218.808 254C218.563 253.477 218.211 253.067 217.752 252.768C217.293 252.459 216.749 252.304 216.12 252.304C215.544 252.304 215.021 252.432 214.552 252.688C214.083 252.944 213.709 253.307 213.432 253.776C213.165 254.235 213.032 254.779 213.032 255.408V256.192C213.032 256.789 213.165 257.317 213.432 257.776C213.709 258.224 214.083 258.576 214.552 258.832C215.021 259.088 215.544 259.216 216.12 259.216ZM226.354 260.272C225.628 260.272 224.999 260.149 224.466 259.904C223.932 259.648 223.495 259.312 223.154 258.896C222.812 258.469 222.556 257.995 222.386 257.472C222.226 256.949 222.146 256.411 222.146 255.856V255.632C222.146 255.088 222.226 254.555 222.386 254.032C222.556 253.509 222.812 253.04 223.154 252.624C223.495 252.208 223.922 251.877 224.434 251.632C224.956 251.376 225.564 251.248 226.258 251.248C227.143 251.248 227.879 251.445 228.466 251.84C229.063 252.235 229.511 252.741 229.81 253.36C230.108 253.968 230.258 254.624 230.258 255.328V255.952H222.69V255.024H229.426L229.122 255.488C229.122 254.859 229.01 254.309 228.786 253.84C228.572 253.36 228.252 252.987 227.826 252.72C227.41 252.443 226.887 252.304 226.258 252.304C225.596 252.304 225.047 252.459 224.61 252.768C224.172 253.077 223.842 253.488 223.618 254C223.404 254.512 223.298 255.093 223.298 255.744C223.298 256.384 223.404 256.971 223.618 257.504C223.842 258.027 224.178 258.443 224.626 258.752C225.084 259.061 225.66 259.216 226.354 259.216C227.09 259.216 227.687 259.051 228.146 258.72C228.604 258.379 228.887 257.979 228.994 257.52H230.114C230.007 258.085 229.783 258.576 229.442 258.992C229.1 259.397 228.668 259.712 228.146 259.936C227.623 260.16 227.026 260.272 226.354 260.272ZM232.568 260V251.536H233.528V255.072H233.432C233.432 253.835 233.704 252.923 234.248 252.336C234.792 251.739 235.645 251.44 236.808 251.44H237.08V252.528H236.584C235.666 252.528 234.968 252.768 234.488 253.248C234.008 253.717 233.768 254.411 233.768 255.328V260H232.568ZM239.469 260V251.536H240.653V260H239.469ZM238.109 252.496V251.536H240.653V252.496H238.109ZM239.725 249.968C239.437 249.968 239.218 249.893 239.069 249.744C238.93 249.584 238.861 249.387 238.861 249.152C238.861 248.917 238.93 248.725 239.069 248.576C239.218 248.416 239.437 248.336 239.725 248.336C240.013 248.336 240.226 248.416 240.365 248.576C240.503 248.725 240.573 248.917 240.573 249.152C240.573 249.387 240.503 249.584 240.365 249.744C240.226 249.893 240.013 249.968 239.725 249.968ZM247.338 260.272C246.613 260.272 245.983 260.149 245.45 259.904C244.917 259.648 244.479 259.312 244.138 258.896C243.797 258.469 243.541 257.995 243.37 257.472C243.21 256.949 243.13 256.411 243.13 255.856V255.632C243.13 255.088 243.21 254.555 243.37 254.032C243.541 253.509 243.797 253.04 244.138 252.624C244.479 252.208 244.906 251.877 245.418 251.632C245.941 251.376 246.549 251.248 247.242 251.248C248.127 251.248 248.863 251.445 249.45 251.84C250.047 252.235 250.495 252.741 250.794 253.36C251.093 253.968 251.242 254.624 251.242 255.328V255.952H243.674V255.024H250.41L250.106 255.488C250.106 254.859 249.994 254.309 249.77 253.84C249.557 253.36 249.237 252.987 248.81 252.72C248.394 252.443 247.871 252.304 247.242 252.304C246.581 252.304 246.031 252.459 245.594 252.768C245.157 253.077 244.826 253.488 244.602 254C244.389 254.512 244.282 255.093 244.282 255.744C244.282 256.384 244.389 256.971 244.602 257.504C244.826 258.027 245.162 258.443 245.61 258.752C246.069 259.061 246.645 259.216 247.338 259.216C248.074 259.216 248.671 259.051 249.13 258.72C249.589 258.379 249.871 257.979 249.978 257.52H251.098C250.991 258.085 250.767 258.576 250.426 258.992C250.085 259.397 249.653 259.712 249.13 259.936C248.607 260.16 248.01 260.272 247.338 260.272ZM253.552 260V251.536H254.512V255.088H254.32C254.32 254.299 254.437 253.621 254.672 253.056C254.907 252.491 255.259 252.053 255.728 251.744C256.197 251.435 256.789 251.28 257.504 251.28H257.552C258.619 251.28 259.413 251.616 259.936 252.288C260.459 252.949 260.72 253.883 260.72 255.088V260H259.536V254.832C259.536 254.096 259.333 253.504 258.928 253.056C258.523 252.608 257.957 252.384 257.232 252.384C256.485 252.384 255.883 252.619 255.424 253.088C254.976 253.547 254.752 254.155 254.752 254.912V260H253.552ZM267.276 260.272C266.562 260.272 265.938 260.149 265.404 259.904C264.882 259.648 264.444 259.307 264.092 258.88C263.74 258.443 263.474 257.963 263.292 257.44C263.122 256.917 263.036 256.389 263.036 255.856V255.632C263.036 255.088 263.122 254.56 263.292 254.048C263.474 253.525 263.74 253.056 264.092 252.64C264.444 252.213 264.882 251.877 265.404 251.632C265.938 251.376 266.551 251.248 267.244 251.248C267.948 251.248 268.572 251.376 269.116 251.632C269.671 251.888 270.119 252.251 270.46 252.72C270.802 253.189 271.004 253.744 271.068 254.384H269.916C269.82 253.797 269.543 253.312 269.084 252.928C268.636 252.533 268.023 252.336 267.244 252.336C266.572 252.336 266.012 252.491 265.564 252.8C265.127 253.099 264.796 253.509 264.572 254.032C264.348 254.544 264.236 255.115 264.236 255.744C264.236 256.363 264.348 256.939 264.572 257.472C264.796 257.995 265.132 258.416 265.58 258.736C266.028 259.045 266.594 259.2 267.276 259.2C267.799 259.2 268.252 259.109 268.636 258.928C269.031 258.736 269.346 258.48 269.58 258.16C269.826 257.84 269.97 257.488 270.012 257.104H271.164C271.122 257.744 270.919 258.304 270.556 258.784C270.204 259.253 269.746 259.621 269.18 259.888C268.615 260.144 267.98 260.272 267.276 260.272ZM276.901 260.272C276.175 260.272 275.546 260.149 275.013 259.904C274.479 259.648 274.042 259.312 273.701 258.896C273.359 258.469 273.103 257.995 272.933 257.472C272.773 256.949 272.693 256.411 272.693 255.856V255.632C272.693 255.088 272.773 254.555 272.933 254.032C273.103 253.509 273.359 253.04 273.701 252.624C274.042 252.208 274.469 251.877 274.981 251.632C275.503 251.376 276.111 251.248 276.805 251.248C277.69 251.248 278.426 251.445 279.013 251.84C279.61 252.235 280.058 252.741 280.357 253.36C280.655 253.968 280.805 254.624 280.805 255.328V255.952H273.237V255.024H279.973L279.669 255.488C279.669 254.859 279.557 254.309 279.333 253.84C279.119 253.36 278.799 252.987 278.373 252.72C277.957 252.443 277.434 252.304 276.805 252.304C276.143 252.304 275.594 252.459 275.157 252.768C274.719 253.077 274.389 253.488 274.164 254C273.951 254.512 273.845 255.093 273.845 255.744C273.845 256.384 273.951 256.971 274.164 257.504C274.389 258.027 274.725 258.443 275.173 258.752C275.631 259.061 276.207 259.216 276.901 259.216C277.637 259.216 278.234 259.051 278.693 258.72C279.151 258.379 279.434 257.979 279.541 257.52H280.661C280.554 258.085 280.33 258.576 279.989 258.992C279.647 259.397 279.215 259.712 278.693 259.936C278.17 260.16 277.573 260.272 276.901 260.272ZM282.763 256.064V255.04H288.379V256.064H282.763ZM63.12 288.272C62.4053 288.272 61.7813 288.149 61.248 287.904C60.7253 287.648 60.288 287.307 59.936 286.88C59.584 286.443 59.3173 285.963 59.136 285.44C58.9653 284.917 58.88 284.389 58.88 283.856V283.632C58.88 283.088 58.9653 282.56 59.136 282.048C59.3173 281.525 59.584 281.056 59.936 280.64C60.288 280.213 60.7253 279.877 61.248 279.632C61.7813 279.376 62.3947 279.248 63.088 279.248C63.792 279.248 64.416 279.376 64.96 279.632C65.5147 279.888 65.9627 280.251 66.304 280.72C66.6453 281.189 66.848 281.744 66.912 282.384H65.76C65.664 281.797 65.3867 281.312 64.928 280.928C64.48 280.533 63.8667 280.336 63.088 280.336C62.416 280.336 61.856 280.491 61.408 280.8C60.9707 281.099 60.64 281.509 60.416 282.032C60.192 282.544 60.08 283.115 60.08 283.744C60.08 284.363 60.192 284.939 60.416 285.472C60.64 285.995 60.976 286.416 61.424 286.736C61.872 287.045 62.4373 287.2 63.12 287.2C63.6427 287.2 64.096 287.109 64.48 286.928C64.8747 286.736 65.1893 286.48 65.424 286.16C65.6693 285.84 65.8133 285.488 65.856 285.104H67.008C66.9653 285.744 66.7627 286.304 66.4 286.784C66.048 287.253 65.5893 287.621 65.024 287.888C64.4587 288.144 63.824 288.272 63.12 288.272ZM73.0003 288.272C72.2749 288.272 71.6349 288.149 71.0803 287.904C70.5363 287.648 70.0723 287.312 69.6883 286.896C69.3149 286.469 69.0269 285.995 68.8243 285.472C68.6323 284.949 68.5363 284.416 68.5363 283.872V283.648C68.5363 283.104 68.6376 282.571 68.8403 282.048C69.0429 281.515 69.3363 281.04 69.7203 280.624C70.1043 280.208 70.5683 279.877 71.1123 279.632C71.6669 279.376 72.2963 279.248 73.0003 279.248C73.7149 279.248 74.3443 279.376 74.8883 279.632C75.4429 279.877 75.9123 280.208 76.2963 280.624C76.6803 281.04 76.9683 281.515 77.1603 282.048C77.3629 282.571 77.4643 283.104 77.4643 283.648V283.872C77.4643 284.416 77.3683 284.949 77.1763 285.472C76.9843 285.995 76.6963 286.469 76.3123 286.896C75.9389 287.312 75.4749 287.648 74.9203 287.904C74.3656 288.149 73.7256 288.272 73.0003 288.272ZM73.0003 287.2C73.7043 287.2 74.2963 287.045 74.7763 286.736C75.2669 286.416 75.6403 286 75.8963 285.488C76.1523 284.965 76.2803 284.389 76.2803 283.76C76.2803 283.12 76.1469 282.544 75.8802 282.032C75.6243 281.509 75.2509 281.099 74.7603 280.8C74.2696 280.491 73.6829 280.336 73.0003 280.336C72.3283 280.336 71.7469 280.491 71.2563 280.8C70.7656 281.099 70.3869 281.509 70.1203 282.032C69.8643 282.544 69.7363 283.12 69.7363 283.76C69.7363 284.389 69.8643 284.965 70.1203 285.488C70.3763 286 70.7443 286.416 71.2243 286.736C71.7149 287.045 72.3069 287.2 73.0003 287.2ZM79.9114 288V279.536H80.8714V283.088H80.6794C80.6794 282.299 80.7967 281.621 81.0314 281.056C81.266 280.491 81.618 280.053 82.0874 279.744C82.5567 279.435 83.1487 279.28 83.8634 279.28H83.9114C84.978 279.28 85.7727 279.616 86.2954 280.288C86.818 280.949 87.0794 281.883 87.0794 283.088V288H85.8954V282.832C85.8954 282.096 85.6927 281.504 85.2874 281.056C84.882 280.608 84.3167 280.384 83.5914 280.384C82.8447 280.384 82.242 280.619 81.7834 281.088C81.3354 281.547 81.1114 282.155 81.1114 282.912V288H79.9114ZM93.1396 288.096C92.553 288.096 92.0463 288.011 91.6196 287.84C91.193 287.669 90.8623 287.381 90.6276 286.976C90.393 286.56 90.2756 286.005 90.2756 285.312V276.864H91.4276V285.488C91.4276 285.979 91.561 286.357 91.8276 286.624C92.0943 286.88 92.473 287.008 92.9636 287.008H94.4836V288.096H93.1396ZM88.7556 280.448V279.536H94.4836V280.448H88.7556ZM101.923 288V285.456H101.731V282.448C101.731 281.819 101.565 281.339 101.235 281.008C100.904 280.667 100.392 280.496 99.6988 280.496C99.3788 280.496 99.0534 280.501 98.7228 280.512C98.4028 280.523 98.0934 280.539 97.7948 280.56C97.5068 280.571 97.2508 280.587 97.0268 280.608V279.552C97.2614 279.531 97.5014 279.509 97.7468 279.488C97.9921 279.467 98.2428 279.456 98.4988 279.456C98.7654 279.445 99.0214 279.44 99.2668 279.44C100.131 279.44 100.824 279.547 101.347 279.76C101.88 279.973 102.269 280.309 102.515 280.768C102.76 281.216 102.883 281.813 102.883 282.56V288H101.923ZM99.0588 288.224C98.4614 288.224 97.9334 288.117 97.4748 287.904C97.0161 287.691 96.6588 287.381 96.4028 286.976C96.1574 286.571 96.0348 286.08 96.0348 285.504C96.0348 284.939 96.1628 284.459 96.4188 284.064C96.6854 283.669 97.0641 283.371 97.5548 283.168C98.0561 282.955 98.6588 282.848 99.3628 282.848H101.843V283.76H99.2828C98.6108 283.76 98.0934 283.925 97.7308 284.256C97.3788 284.576 97.2028 284.997 97.2028 285.52C97.2028 286.053 97.3894 286.48 97.7628 286.8C98.1361 287.109 98.6428 287.264 99.2828 287.264C99.6774 287.264 100.056 287.195 100.419 287.056C100.781 286.907 101.085 286.661 101.331 286.32C101.576 285.968 101.709 285.488 101.731 284.88L102.083 285.376C102.04 286.005 101.891 286.533 101.635 286.96C101.379 287.376 101.032 287.691 100.595 287.904C100.157 288.117 99.6454 288.224 99.0588 288.224ZM109.448 288.272C108.733 288.272 108.109 288.149 107.576 287.904C107.053 287.648 106.616 287.307 106.264 286.88C105.912 286.443 105.645 285.963 105.464 285.44C105.293 284.917 105.208 284.389 105.208 283.856V283.632C105.208 283.088 105.293 282.56 105.464 282.048C105.645 281.525 105.912 281.056 106.264 280.64C106.616 280.213 107.053 279.877 107.576 279.632C108.109 279.376 108.723 279.248 109.416 279.248C110.12 279.248 110.744 279.376 111.288 279.632C111.843 279.888 112.291 280.251 112.632 280.72C112.973 281.189 113.176 281.744 113.24 282.384H112.088C111.992 281.797 111.715 281.312 111.256 280.928C110.808 280.533 110.195 280.336 109.416 280.336C108.744 280.336 108.184 280.491 107.736 280.8C107.299 281.099 106.968 281.509 106.744 282.032C106.52 282.544 106.408 283.115 106.408 283.744C106.408 284.363 106.52 284.939 106.744 285.472C106.968 285.995 107.304 286.416 107.752 286.736C108.2 287.045 108.765 287.2 109.448 287.2C109.971 287.2 110.424 287.109 110.808 286.928C111.203 286.736 111.517 286.48 111.752 286.16C111.997 285.84 112.141 285.488 112.184 285.104H113.336C113.293 285.744 113.091 286.304 112.728 286.784C112.376 287.253 111.917 287.621 111.352 287.888C110.787 288.144 110.152 288.272 109.448 288.272ZM118.608 288.096C118.022 288.096 117.515 288.011 117.088 287.84C116.662 287.669 116.331 287.381 116.096 286.976C115.862 286.56 115.744 286.005 115.744 285.312V276.864H116.896V285.488C116.896 285.979 117.03 286.357 117.296 286.624C117.563 286.88 117.942 287.008 118.432 287.008H119.952V288.096H118.608ZM114.224 280.448V279.536H119.952V280.448H114.224ZM126.245 288V278.88C126.245 277.995 126.474 277.339 126.933 276.912C127.392 276.485 128.08 276.272 128.997 276.272H130.069V277.296H128.773C128.325 277.296 127.984 277.413 127.749 277.648C127.514 277.883 127.397 278.213 127.397 278.64V288H126.245ZM125.013 280.528V279.6H130.245V280.528H125.013ZM135.719 288.272C134.994 288.272 134.354 288.149 133.799 287.904C133.255 287.648 132.791 287.312 132.407 286.896C132.034 286.469 131.746 285.995 131.543 285.472C131.351 284.949 131.255 284.416 131.255 283.872V283.648C131.255 283.104 131.356 282.571 131.559 282.048C131.762 281.515 132.055 281.04 132.439 280.624C132.823 280.208 133.287 279.877 133.831 279.632C134.386 279.376 135.015 279.248 135.719 279.248C136.434 279.248 137.063 279.376 137.607 279.632C138.162 279.877 138.631 280.208 139.015 280.624C139.399 281.04 139.687 281.515 139.879 282.048C140.082 282.571 140.183 283.104 140.183 283.648V283.872C140.183 284.416 140.087 284.949 139.895 285.472C139.703 285.995 139.415 286.469 139.031 286.896C138.658 287.312 138.194 287.648 137.639 287.904C137.084 288.149 136.444 288.272 135.719 288.272ZM135.719 287.2C136.423 287.2 137.015 287.045 137.495 286.736C137.986 286.416 138.359 286 138.615 285.488C138.871 284.965 138.999 284.389 138.999 283.76C138.999 283.12 138.866 282.544 138.599 282.032C138.343 281.509 137.97 281.099 137.479 280.8C136.988 280.491 136.402 280.336 135.719 280.336C135.047 280.336 134.466 280.491 133.975 280.8C133.484 281.099 133.106 281.509 132.839 282.032C132.583 282.544 132.455 283.12 132.455 283.76C132.455 284.389 132.583 284.965 132.839 285.488C133.095 286 133.463 286.416 133.943 286.736C134.434 287.045 135.026 287.2 135.719 287.2ZM142.63 288V279.536H143.59V283.072H143.494C143.494 281.835 143.766 280.923 144.31 280.336C144.854 279.739 145.707 279.44 146.87 279.44H147.142V280.528H146.646C145.729 280.528 145.03 280.768 144.55 281.248C144.07 281.717 143.83 282.411 143.83 283.328V288H142.63ZM153.266 288V279.536H154.45V288H153.266ZM151.906 280.496V279.536H154.45V280.496H151.906ZM153.522 277.968C153.234 277.968 153.015 277.893 152.866 277.744C152.727 277.584 152.658 277.387 152.658 277.152C152.658 276.917 152.727 276.725 152.866 276.576C153.015 276.416 153.234 276.336 153.522 276.336C153.81 276.336 154.023 276.416 154.162 276.576C154.3 276.725 154.37 276.917 154.37 277.152C154.37 277.387 154.3 277.584 154.162 277.744C154.023 277.893 153.81 277.968 153.522 277.968ZM157.599 288V279.536H158.559V283.088H158.367C158.367 282.299 158.484 281.621 158.719 281.056C158.954 280.491 159.306 280.053 159.775 279.744C160.244 279.435 160.836 279.28 161.551 279.28H161.599C162.666 279.28 163.46 279.616 163.983 280.288C164.506 280.949 164.767 281.883 164.767 283.088V288H163.583V282.832C163.583 282.096 163.38 281.504 162.975 281.056C162.57 280.608 162.004 280.384 161.279 280.384C160.532 280.384 159.93 280.619 159.471 281.088C159.023 281.547 158.799 282.155 158.799 282.912V288H157.599ZM174.395 291.2V285.456L174.907 284.256C174.886 285.12 174.71 285.851 174.379 286.448C174.048 287.045 173.606 287.499 173.051 287.808C172.507 288.117 171.888 288.272 171.195 288.272C170.576 288.272 170.011 288.155 169.499 287.92C168.998 287.685 168.566 287.36 168.203 286.944C167.851 286.528 167.574 286.053 167.371 285.52C167.179 284.987 167.083 284.427 167.083 283.84V283.616C167.083 283.029 167.179 282.48 167.371 281.968C167.563 281.445 167.84 280.981 168.203 280.576C168.566 280.16 168.998 279.835 169.499 279.6C170.011 279.365 170.587 279.248 171.227 279.248C171.984 279.248 172.64 279.419 173.195 279.76C173.76 280.091 174.198 280.549 174.507 281.136C174.827 281.723 174.998 282.411 175.019 283.2L174.635 283.104V279.536H175.595V291.2H174.395ZM171.387 287.184C171.963 287.184 172.48 287.056 172.939 286.8C173.408 286.533 173.776 286.165 174.043 285.696C174.31 285.227 174.443 284.683 174.443 284.064V283.28C174.443 282.683 174.31 282.16 174.043 281.712C173.776 281.253 173.408 280.901 172.939 280.656C172.48 280.4 171.963 280.272 171.387 280.272C170.747 280.272 170.192 280.427 169.723 280.736C169.264 281.035 168.907 281.445 168.651 281.968C168.406 282.491 168.283 283.077 168.283 283.728C168.283 284.389 168.411 284.981 168.667 285.504C168.923 286.027 169.286 286.437 169.755 286.736C170.224 287.035 170.768 287.184 171.387 287.184ZM181.621 288.24C180.607 288.24 179.834 287.915 179.301 287.264C178.767 286.603 178.501 285.685 178.501 284.512V279.52H179.685V284.752C179.685 285.488 179.877 286.075 180.261 286.512C180.655 286.939 181.199 287.152 181.893 287.152C182.618 287.152 183.194 286.923 183.621 286.464C184.058 286.005 184.277 285.392 184.277 284.624V279.52H185.477V288H184.517V284.464H184.709C184.709 285.253 184.597 285.931 184.373 286.496C184.149 287.051 183.813 287.483 183.365 287.792C182.917 288.091 182.351 288.24 181.669 288.24H181.621ZM189.062 288V279.536H190.247V288H189.062ZM187.703 280.496V279.536H190.247V280.496H187.703ZM189.319 277.968C189.031 277.968 188.812 277.893 188.663 277.744C188.524 277.584 188.455 277.387 188.455 277.152C188.455 276.917 188.524 276.725 188.663 276.576C188.812 276.416 189.031 276.336 189.319 276.336C189.607 276.336 189.82 276.416 189.959 276.576C190.097 276.725 190.167 276.917 190.167 277.152C190.167 277.387 190.097 277.584 189.959 277.744C189.82 277.893 189.607 277.968 189.319 277.968ZM193.396 288V279.536H194.356V283.072H194.26C194.26 281.835 194.532 280.923 195.076 280.336C195.62 279.739 196.473 279.44 197.636 279.44H197.908V280.528H197.412C196.494 280.528 195.796 280.768 195.316 281.248C194.836 281.717 194.596 282.411 194.596 283.328V288H193.396ZM199.378 291.296V290.224H200.466C200.839 290.224 201.159 290.176 201.426 290.08C201.693 289.995 201.917 289.84 202.098 289.616C202.279 289.392 202.434 289.083 202.562 288.688L205.41 279.536H206.578L203.602 289.024C203.431 289.568 203.197 290.005 202.898 290.336C202.599 290.677 202.242 290.923 201.826 291.072C201.41 291.221 200.935 291.296 200.402 291.296H199.378ZM202.13 287.792V286.784H203.65V287.792H202.13ZM201.986 287.792L198.914 279.536H200.146L203.106 287.792H201.986ZM207.812 288V286.416H209.316V288H207.812Z" fill="#575F66"/>
<path d="M69.18 176.494C67.5507 176.494 66.112 176.225 64.864 175.688C63.6333 175.133 62.5933 174.397 61.744 173.478C60.912 172.542 60.2793 171.493 59.846 170.332C59.43 169.153 59.222 167.931 59.222 166.666V166.094C59.222 164.898 59.43 163.728 59.846 162.584C60.262 161.44 60.8687 160.409 61.666 159.49C62.4807 158.571 63.4773 157.843 64.656 157.306C65.852 156.751 67.2213 156.474 68.764 156.474C70.428 156.474 71.9013 156.786 73.184 157.41C74.4667 158.017 75.498 158.875 76.278 159.984C77.058 161.076 77.5173 162.35 77.656 163.806H73.938C73.8167 162.991 73.5133 162.298 73.028 161.726C72.5427 161.137 71.9273 160.686 71.182 160.374C70.454 160.062 69.648 159.906 68.764 159.906C67.88 159.906 67.074 160.062 66.346 160.374C65.6353 160.686 65.0287 161.128 64.526 161.7C64.0233 162.272 63.6333 162.957 63.356 163.754C63.096 164.551 62.966 165.435 62.966 166.406C62.966 167.463 63.1133 168.408 63.408 169.24C63.7027 170.072 64.1187 170.783 64.656 171.372C65.1933 171.944 65.8433 172.386 66.606 172.698C67.3687 172.993 68.2267 173.14 69.18 173.14C70.4453 173.14 71.5547 172.88 72.508 172.36C73.4613 171.823 74.1547 171.129 74.588 170.28L73.938 173.27V168.382H77.344V172.594C76.5293 173.825 75.42 174.787 74.016 175.48C72.612 176.156 71 176.494 69.18 176.494ZM68.582 169.11V166.354H78.93V169.11H68.582ZM88.0048 176.494C86.7915 176.494 85.7255 176.286 84.8068 175.87C83.9055 175.454 83.1515 174.899 82.5448 174.206C81.9555 173.495 81.5048 172.707 81.1928 171.84C80.8981 170.973 80.7508 170.089 80.7508 169.188V168.694C80.7508 167.758 80.8981 166.857 81.1928 165.99C81.5048 165.106 81.9555 164.326 82.5448 163.65C83.1515 162.957 83.8968 162.411 84.7808 162.012C85.6648 161.596 86.6875 161.388 87.8488 161.388C89.3741 161.388 90.6481 161.726 91.6708 162.402C92.7108 163.061 93.4908 163.936 94.0108 165.028C94.5308 166.103 94.7908 167.264 94.7908 168.512V169.812H82.2848V167.602H92.5288L91.4108 168.694C91.4108 167.793 91.2808 167.021 91.0208 166.38C90.7608 165.739 90.3621 165.245 89.8248 164.898C89.3048 164.551 88.6461 164.378 87.8488 164.378C87.0515 164.378 86.3755 164.56 85.8208 164.924C85.2661 165.288 84.8415 165.817 84.5468 166.51C84.2695 167.186 84.1308 168.001 84.1308 168.954C84.1308 169.838 84.2695 170.627 84.5468 171.32C84.8241 171.996 85.2488 172.533 85.8208 172.932C86.3928 173.313 87.1208 173.504 88.0048 173.504C88.8888 173.504 89.6081 173.331 90.1628 172.984C90.7175 172.62 91.0728 172.178 91.2288 171.658H94.5568C94.3488 172.629 93.9501 173.478 93.3608 174.206C92.7715 174.934 92.0175 175.497 91.0988 175.896C90.1975 176.295 89.1661 176.494 88.0048 176.494ZM103.946 176.182C102.646 176.182 101.571 176.017 100.722 175.688C99.8899 175.341 99.2659 174.769 98.8499 173.972C98.4339 173.157 98.2259 172.065 98.2259 170.696L98.2519 157.904H101.632L101.606 170.93C101.606 171.623 101.788 172.161 102.152 172.542C102.533 172.906 103.071 173.088 103.764 173.088H105.974V176.182H103.946ZM95.9899 164.534V161.882H105.974V164.534H95.9899ZM120.754 176.182C119.454 176.182 118.38 176.017 117.53 175.688C116.698 175.341 116.074 174.769 115.658 173.972C115.242 173.157 115.034 172.065 115.034 170.696L115.06 157.904H118.44L118.414 170.93C118.414 171.623 118.596 172.161 118.96 172.542C119.342 172.906 119.879 173.088 120.572 173.088H122.782V176.182H120.754ZM112.798 164.534V161.882H122.782V164.534H112.798ZM125.816 176V161.882H128.676V167.862H128.598C128.598 165.834 129.031 164.3 129.898 163.26C130.764 162.22 132.038 161.7 133.72 161.7H134.24V164.846H133.252C132.038 164.846 131.094 165.175 130.418 165.834C129.759 166.475 129.43 167.411 129.43 168.642V176H125.816ZM142.874 176.494C141.661 176.494 140.595 176.286 139.676 175.87C138.775 175.454 138.021 174.899 137.414 174.206C136.825 173.495 136.374 172.707 136.062 171.84C135.767 170.973 135.62 170.089 135.62 169.188V168.694C135.62 167.758 135.767 166.857 136.062 165.99C136.374 165.106 136.825 164.326 137.414 163.65C138.021 162.957 138.766 162.411 139.65 162.012C140.534 161.596 141.557 161.388 142.718 161.388C144.243 161.388 145.517 161.726 146.54 162.402C147.58 163.061 148.36 163.936 148.88 165.028C149.4 166.103 149.66 167.264 149.66 168.512V169.812H137.154V167.602H147.398L146.28 168.694C146.28 167.793 146.15 167.021 145.89 166.38C145.63 165.739 145.231 165.245 144.694 164.898C144.174 164.551 143.515 164.378 142.718 164.378C141.921 164.378 141.245 164.56 140.69 164.924C140.135 165.288 139.711 165.817 139.416 166.51C139.139 167.186 139 168.001 139 168.954C139 169.838 139.139 170.627 139.416 171.32C139.693 171.996 140.118 172.533 140.69 172.932C141.262 173.313 141.99 173.504 142.874 173.504C143.758 173.504 144.477 173.331 145.032 172.984C145.587 172.62 145.942 172.178 146.098 171.658H149.426C149.218 172.629 148.819 173.478 148.23 174.206C147.641 174.934 146.887 175.497 145.968 175.896C145.067 176.295 144.035 176.494 142.874 176.494ZM161.233 176V171.814H160.635V167.16C160.635 166.345 160.436 165.739 160.037 165.34C159.638 164.941 159.023 164.742 158.191 164.742C157.758 164.742 157.238 164.751 156.631 164.768C156.024 164.785 155.409 164.811 154.785 164.846C154.178 164.863 153.632 164.889 153.147 164.924V161.856C153.546 161.821 153.996 161.787 154.499 161.752C155.002 161.717 155.513 161.7 156.033 161.7C156.57 161.683 157.073 161.674 157.541 161.674C158.997 161.674 160.202 161.865 161.155 162.246C162.126 162.627 162.854 163.225 163.339 164.04C163.842 164.855 164.093 165.921 164.093 167.238V176H161.233ZM156.683 176.364C155.66 176.364 154.759 176.182 153.979 175.818C153.216 175.454 152.618 174.934 152.185 174.258C151.769 173.582 151.561 172.767 151.561 171.814C151.561 170.774 151.812 169.925 152.315 169.266C152.835 168.607 153.554 168.113 154.473 167.784C155.409 167.455 156.501 167.29 157.749 167.29H161.025V169.448H157.697C156.865 169.448 156.224 169.656 155.773 170.072C155.34 170.471 155.123 170.991 155.123 171.632C155.123 172.273 155.34 172.793 155.773 173.192C156.224 173.591 156.865 173.79 157.697 173.79C158.2 173.79 158.659 173.703 159.075 173.53C159.508 173.339 159.864 173.027 160.141 172.594C160.436 172.143 160.6 171.537 160.635 170.774L161.519 171.788C161.432 172.776 161.19 173.608 160.791 174.284C160.41 174.96 159.872 175.48 159.179 175.844C158.503 176.191 157.671 176.364 156.683 176.364ZM174.1 176.182C172.8 176.182 171.725 176.017 170.876 175.688C170.044 175.341 169.42 174.769 169.004 173.972C168.588 173.157 168.38 172.065 168.38 170.696L168.406 157.904H171.786L171.76 170.93C171.76 171.623 171.942 172.161 172.306 172.542C172.687 172.906 173.225 173.088 173.918 173.088H176.128V176.182H174.1ZM166.144 164.534V161.882H176.128V164.534H166.144ZM179.161 176V161.882H182.021V167.94H181.761C181.761 166.519 181.943 165.331 182.307 164.378C182.671 163.407 183.209 162.679 183.919 162.194C184.647 161.691 185.549 161.44 186.623 161.44H186.779C187.871 161.44 188.773 161.691 189.483 162.194C190.211 162.679 190.749 163.407 191.095 164.378C191.459 165.331 191.641 166.519 191.641 167.94H190.731C190.731 166.519 190.913 165.331 191.277 164.378C191.659 163.407 192.205 162.679 192.915 162.194C193.643 161.691 194.545 161.44 195.619 161.44H195.775C196.867 161.44 197.777 161.691 198.505 162.194C199.233 162.679 199.779 163.407 200.143 164.378C200.525 165.331 200.715 166.519 200.715 167.94V176H197.101V167.602C197.101 166.718 196.876 166.016 196.425 165.496C195.975 164.959 195.333 164.69 194.501 164.69C193.669 164.69 193.002 164.967 192.499 165.522C191.997 166.059 191.745 166.787 191.745 167.706V176H188.131V167.602C188.131 166.718 187.906 166.016 187.455 165.496C187.005 164.959 186.363 164.69 185.531 164.69C184.699 164.69 184.032 164.967 183.529 165.522C183.027 166.059 182.775 166.787 182.775 167.706V176H179.161ZM210.895 176.494C209.682 176.494 208.616 176.286 207.697 175.87C206.796 175.454 206.042 174.899 205.435 174.206C204.846 173.495 204.395 172.707 204.083 171.84C203.789 170.973 203.641 170.089 203.641 169.188V168.694C203.641 167.758 203.789 166.857 204.083 165.99C204.395 165.106 204.846 164.326 205.435 163.65C206.042 162.957 206.787 162.411 207.671 162.012C208.555 161.596 209.578 161.388 210.739 161.388C212.265 161.388 213.539 161.726 214.561 162.402C215.601 163.061 216.381 163.936 216.901 165.028C217.421 166.103 217.681 167.264 217.681 168.512V169.812H205.175V167.602H215.419L214.301 168.694C214.301 167.793 214.171 167.021 213.911 166.38C213.651 165.739 213.253 165.245 212.715 164.898C212.195 164.551 211.537 164.378 210.739 164.378C209.942 164.378 209.266 164.56 208.711 164.924C208.157 165.288 207.732 165.817 207.437 166.51C207.16 167.186 207.021 168.001 207.021 168.954C207.021 169.838 207.16 170.627 207.437 171.32C207.715 171.996 208.139 172.533 208.711 172.932C209.283 173.313 210.011 173.504 210.895 173.504C211.779 173.504 212.499 173.331 213.053 172.984C213.608 172.62 213.963 172.178 214.119 171.658H217.447C217.239 172.629 216.841 173.478 216.251 174.206C215.662 174.934 214.908 175.497 213.989 175.896C213.088 176.295 212.057 176.494 210.895 176.494ZM220.7 176V161.882H223.56V167.94H223.3C223.3 166.501 223.491 165.305 223.872 164.352C224.254 163.381 224.817 162.653 225.562 162.168C226.325 161.683 227.27 161.44 228.396 161.44H228.552C230.234 161.44 231.508 161.986 232.374 163.078C233.241 164.153 233.674 165.765 233.674 167.914V176H230.06V167.602C230.06 166.735 229.809 166.033 229.306 165.496C228.821 164.959 228.145 164.69 227.278 164.69C226.394 164.69 225.675 164.967 225.12 165.522C224.583 166.059 224.314 166.787 224.314 167.706V176H220.7ZM243.696 176.182C242.396 176.182 241.321 176.017 240.472 175.688C239.64 175.341 239.016 174.769 238.6 173.972C238.184 173.157 237.976 172.065 237.976 170.696L238.002 157.904H241.382L241.356 170.93C241.356 171.623 241.538 172.161 241.902 172.542C242.283 172.906 242.821 173.088 243.514 173.088H245.724V176.182H243.696ZM235.74 164.534V161.882H245.724V164.534H235.74Z" fill="#10375C"/>
<g clip-path="url(#clip0_2_152)">
<path d="M123.25 75.875H64.75C62.9598 75.875 61.2429 76.5862 59.977 77.852C58.7112 79.1179 58 80.8348 58 82.625V118.625C58 120.415 58.7112 122.132 59.977 123.398C61.2429 124.664 62.9598 125.375 64.75 125.375H123.25C125.04 125.375 126.757 124.664 128.023 123.398C129.289 122.132 130 120.415 130 118.625V82.625C130 80.8348 129.289 79.1179 128.023 77.852C126.757 76.5862 125.04 75.875 123.25 75.875ZM106.375 104H97.375V113H90.625V104H81.625V97.25H90.625V88.25H97.375V97.25H106.375V104Z" fill="#10375C"/>
<path d="M85 73.625V70.25C85 69.6533 85.2371 69.081 85.659 68.659C86.081 68.2371 86.6533 68 87.25 68H100.75C101.347 68 101.919 68.2371 102.341 68.659C102.763 69.081 103 69.6533 103 70.25V73.625H107.5V70.25C107.498 68.4604 106.786 66.7448 105.521 65.4793C104.255 64.2139 102.54 63.5021 100.75 63.5H87.25C85.4604 63.5021 83.7447 64.2139 82.4793 65.4793C81.2139 66.7448 80.5021 68.4604 80.5 70.25V73.625H85Z" fill="#10375C"/>
</g>
<defs>
<clipPath id="clip0_2_152">
<rect width="72" height="72" fill="white" transform="translate(58 59)"/>
</clipPath>
</defs>
</svg>
